<svg xmlns="http://www.w3.org/2000/svg" width="142.583" height="28" viewBox="0 0 142.583 28"><defs><style>.a{fill:#fff;}</style></defs><g transform="translate(14489.241 -7275)"><path class="a" d="M258.192,495c-1.706,0-2.536-.525-2.536-1.6a4.131,4.131,0,0,1,.268-1.329l1.733-4.9-7.342,6.211A7.427,7.427,0,0,1,246.483,495h-3.394l4.615-13.132h6.778l-2.374,6.724,6.558-5.376a7.806,7.806,0,0,1,5-1.887l.213,0a1.646,1.646,0,0,1,1.767,1.882,4.943,4.943,0,0,1-.307,1.587l-2.647,7.387h8.124a3.9,3.9,0,0,1-2.109,2.233,6,6,0,0,1-2.6.578Z" transform="translate(-14680.871 6807.604)"/><path class="a" d="M279.622,495.179l-.83-13.132h6.83l.123,10.115,7.709-10.115h15.38a3.847,3.847,0,0,1-2.112,2.234,6.01,6.01,0,0,1-2.6.578H295.7l-8.4,10.321Z" transform="translate(-14689.783 6807.424)"/><path class="a" d="M308.366,495.576a4.983,4.983,0,0,1-3.642-1.377,4.861,4.861,0,0,1-1.394-3.6,7.627,7.627,0,0,1,3.1-6.4,11.324,11.324,0,0,1,7.015-2.147H324.52l-3.732,10.321h6.533c-.66,1.891-2.17,2.812-4.612,2.812H316.9c-2.04,0-3.032-.617-3.032-1.882v-.485l-.319.364a6.665,6.665,0,0,1-5.183,2.4m2.171-5.972a3.294,3.294,0,0,0-.13.855c0,1.267,1.2,1.909,3.556,1.909h.129l2.65-7.509h-4.5Z" transform="translate(-14695.909 6807.424)"/><path class="a" d="M217.378,495.576a4.982,4.982,0,0,1-3.642-1.377,4.859,4.859,0,0,1-1.395-3.6,7.628,7.628,0,0,1,3.1-6.4,11.326,11.326,0,0,1,7.015-2.147h11.072L229.8,492.367h6.533c-.66,1.891-2.172,2.812-4.612,2.812h-5.81c-2.04,0-3.033-.617-3.033-1.882v-.485l-.318.364a6.668,6.668,0,0,1-5.183,2.4m2.17-5.972a3.263,3.263,0,0,0-.129.855c0,1.267,1.2,1.909,3.556,1.909h.128l2.651-7.509h-4.5Z" transform="translate(-14673.194 6807.424)"/><path class="a" d="M337.095,493.13c-2.8,0-4.165-.811-4.165-2.478a3.556,3.556,0,0,1,.038-.49,2.25,2.25,0,0,1,1.182-1.714,3.829,3.829,0,0,1,2.009-.531h.079c1.388.038,3.314.823,5.721,2.334l.138.086.1-.126a4.428,4.428,0,0,0,1.092-2.775,12.833,12.833,0,0,0-.864-3.137l-.092-.259-2.393,2.181h-3.433l5.045-4.666-.073-.126a6.074,6.074,0,0,1-.482-.98,5.123,5.123,0,0,1-.266-1.537l4.763-5.074c2.051.368,3.047,1.285,3.047,2.8a4.327,4.327,0,0,1-.82,2.535l-.056.08.034.089q.734,1.946,1.489,3.891a12.38,12.38,0,0,1,.9,3.984A3.623,3.623,0,0,1,348.8,490l-.355.318h8.194a2.76,2.76,0,0,1-1.415,1.917,5.559,5.559,0,0,1-3.046.894Z" transform="translate(-14703.298 6809.473)"/><path class="a" d="M191.238,490.365A26.471,26.471,0,0,1,180.2,488.4c-3.814-1.784-5.728-4.726-5.69-8.743a13.46,13.46,0,0,1,2.1-6.814,19.907,19.907,0,0,1,7.987-7.4,24.713,24.713,0,0,1,10.682-2.639q.769-.044,1.456-.043c3.75,0,5.256.915,5.821,1.46a4.414,4.414,0,0,1,1.462,3.242,4.316,4.316,0,0,1-1.585,3.375,5.3,5.3,0,0,1-3.551,1.306,5.4,5.4,0,0,1-3.593-1.306,4.315,4.315,0,0,1-1.584-3.375,3.8,3.8,0,0,1,.149-1.135l.078-.241-.253,0c-2.875.027-5.52,1.533-7.861,4.474a13.838,13.838,0,0,0-3.294,8.609c0,5.559,3.66,8.379,10.879,8.379h9.757c-.46,1.891-1.965,2.812-4.6,2.812Z" transform="translate(-14663.751 6812.239)"/></g></svg>